<svg width="864" height="540" viewBox="0 0 864 540" fill="none" xmlns="http://www.w3.org/2000/svg">
<g clip-path="url(#clip0_1406_99)">
<rect y="-45" width="864" height="584.938" fill="#030932"/>
<path d="M371.123 512.548C371.123 692.428 219.901 838.249 33.3594 838.249C-153.182 838.249 -304.404 692.428 -304.404 512.548C-304.404 332.669 -153.182 186.848 33.3594 186.848C219.901 186.848 371.123 332.669 371.123 512.548Z" fill="url(#paint0_radial_1406_99)" fill-opacity="0.62"/>
<path d="M1174.62 522.639C1174.62 700.507 1025.09 844.698 840.635 844.698C656.179 844.698 506.648 700.507 506.648 522.639C506.648 344.771 656.179 200.58 840.635 200.58C1025.09 200.58 1174.62 344.771 1174.62 522.639Z" fill="url(#paint1_radial_1406_99)" fill-opacity="0.62"/>
<path d="M555.947 -33.7576C555.947 118.807 427.689 242.485 269.474 242.485C111.259 242.485 -17 118.807 -17 -33.7576C-17 -186.322 111.259 -310 269.474 -310C427.689 -310 555.947 -186.322 555.947 -33.7576Z" fill="url(#paint2_radial_1406_99)" fill-opacity="0.62"/>
</g>
<rect x="0.5" y="-44.5" width="863" height="583.938" stroke="black"/>
<defs>
<radialGradient id="paint0_radial_1406_99" cx="0" cy="0" r="1" gradientUnits="userSpaceOnUse" gradientTransform="translate(33.3594 512.548) rotate(68.7391) scale(260.41 270.055)">
<stop stop-color="#AA14F0" stop-opacity="0.5"/>
<stop offset="1" stop-color="#AA14F0" stop-opacity="0"/>
</radialGradient>
<radialGradient id="paint1_radial_1406_99" cx="0" cy="0" r="1" gradientUnits="userSpaceOnUse" gradientTransform="translate(840.635 522.639) rotate(68.7391) scale(257.498 267.035)">
<stop stop-color="#AA14F0" stop-opacity="0.5"/>
<stop offset="1" stop-color="#AA14F0" stop-opacity="0"/>
</radialGradient>
<radialGradient id="paint2_radial_1406_99" cx="0" cy="0" r="1" gradientUnits="userSpaceOnUse" gradientTransform="translate(269.474 -33.7576) rotate(68.7391) scale(220.867 229.047)">
<stop stop-color="#AA14F0" stop-opacity="0.5"/>
<stop offset="1" stop-color="#AA14F0" stop-opacity="0"/>
</radialGradient>
<clipPath id="clip0_1406_99">
<rect y="-45" width="864" height="584.938" fill="white"/>
</clipPath>
</defs>
</svg>
