<svg width="24" height="24" viewBox="0 0 24 24" fill="none" xmlns="http://www.w3.org/2000/svg">
<path d="M22.4004 4.88437H23.5001V19.1156H22.4004V4.88437Z" fill="black"/>
<path d="M21.3076 19.1156H22.4001V20.2153H21.3076V19.1156Z" fill="black"/>
<path d="M21.3076 3.78468H22.4001V4.88437H21.3076V3.78468Z" fill="black"/>
<path d="M20.2153 5.97687H21.3078V8.16906H20.2153V5.97687Z" fill="black"/>
<path d="M2.69214 20.2153H21.3078V21.3078H2.69214V20.2153Z" fill="black"/>
<path d="M19.1157 16.9306H20.2154V18.0231H19.1157V16.9306Z" fill="black"/>
<path d="M19.1157 8.16907H20.2154V9.26157H19.1157V8.16907Z" fill="black"/>
<path d="M18.0229 15.8309H19.1154V16.9306H18.0229V15.8309Z" fill="black"/>
<path d="M18.0229 9.26157H19.1154V10.3541H18.0229V9.26157Z" fill="black"/>
<path d="M16.9233 14.7384H18.023V15.8309H16.9233V14.7384Z" fill="black"/>
<path d="M16.9233 10.3541H18.023V11.4538H16.9233V10.3541Z" fill="black"/>
<path d="M15.8311 13.6459H16.9236V14.7384H15.8311V13.6459Z" fill="black"/>
<path d="M15.8311 11.4538H16.9236V12.5463H15.8311V11.4538Z" fill="black"/>
<path d="M13.6387 12.5462H15.8309V13.6459H13.6387V12.5462Z" fill="black"/>
<path d="M10.354 13.6459H13.6387V14.7384H10.354V13.6459Z" fill="black"/>
<path d="M8.16211 12.5462H10.3543V13.6459H8.16211V12.5462Z" fill="black"/>
<path d="M7.06934 13.6459H8.16184V14.7384H7.06934V13.6459Z" fill="black"/>
<path d="M7.06934 11.4538H8.16184V12.5463H7.06934V11.4538Z" fill="black"/>
<path d="M5.97705 14.7384H7.06955V15.8309H5.97705V14.7384Z" fill="black"/>
<path d="M5.97705 10.3541H7.06955V11.4538H5.97705V10.3541Z" fill="black"/>
<path d="M4.87695 15.8309H5.97664V16.9306H4.87695V15.8309Z" fill="black"/>
<path d="M4.87695 9.26157H5.97664V10.3541H4.87695V9.26157Z" fill="black"/>
<path d="M3.78467 16.9306H4.87717V18.0231H3.78467V16.9306Z" fill="black"/>
<path d="M3.78467 8.16907H4.87717V9.26157H3.78467V8.16907Z" fill="black"/>
<path d="M2.69214 2.69218H21.3078V3.78468H2.69214V2.69218Z" fill="black"/>
<path d="M2.69214 5.97687H3.78464V8.16906H2.69214V5.97687Z" fill="black"/>
<path d="M1.59253 19.1156H2.69222V20.2153H1.59253V19.1156Z" fill="black"/>
<path d="M1.59253 3.78468H2.69222V4.88437H1.59253V3.78468Z" fill="black"/>
<path d="M0.5 4.88437H1.5925V19.1156H0.5V4.88437Z" fill="black"/>
</svg>
