<svg width="24" height="26" viewBox="0 0 24 26" fill="none" xmlns="http://www.w3.org/2000/svg">
<g clip-path="url(#clip0_1363_6106)">
<path d="M19.1191 6.60803H20.2116V12.3073H19.1191V6.60803Z" fill="black"/>
<path d="M18.0264 12.3073H19.1189V15.7254H18.0264V12.3073Z" fill="black"/>
<path d="M18.0264 4.33432H19.1189V6.60805H18.0264V4.33432Z" fill="black"/>
<path d="M16.9268 15.7254H18.0264V18.0066H16.9268V15.7254Z" fill="black"/>
<path d="M16.9268 3.18997H18.0264V4.33432H16.9268V3.18997Z" fill="black"/>
<path d="M15.8345 18.0066H16.927V20.2878H15.8345V18.0066Z" fill="black"/>
<path d="M15.8343 10.0336H14.7418V7.7524H13.6421V6.60805H12.5496V5.47119H13.6421V4.33432H10.3574V5.47119H9.26494V6.60805H8.16525V7.7524H7.07275V11.1705H8.16525V12.3073H9.26494V13.4517H10.3574V14.5885H13.6421V13.4517H14.7418V12.3073H15.8343V11.1705H16.9268V7.7524H15.8343V10.0336Z" fill="black"/>
<path d="M14.7417 20.2878H15.8342V21.4247H14.7417V20.2878Z" fill="black"/>
<path d="M14.7417 6.60803H15.8342V7.75238H14.7417V6.60803Z" fill="black"/>
<path d="M14.7417 2.0531H16.9267V3.18997H14.7417V2.0531Z" fill="black"/>
<path d="M13.6421 21.4247H14.7418V22.569H13.6421V21.4247Z" fill="black"/>
<path d="M13.6421 5.47116H14.7418V6.60803H13.6421V5.47116Z" fill="black"/>
<path d="M12.5498 22.569H13.6423V23.7059H12.5498V22.569Z" fill="black"/>
<path d="M11.4502 23.7059H12.5499V24.8502H11.4502V23.7059Z" fill="black"/>
<path d="M10.3574 22.569H11.4499V23.7059H10.3574V22.569Z" fill="black"/>
<path d="M9.26514 0.916229H14.742V2.05309H9.26514V0.916229Z" fill="black"/>
<path d="M9.26514 21.4247H10.3576V22.569H9.26514V21.4247Z" fill="black"/>
<path d="M8.16504 20.2878H9.26473V21.4247H8.16504V20.2878Z" fill="black"/>
<path d="M7.07275 2.0531H9.26494V3.18997H7.07275V2.0531Z" fill="black"/>
<path d="M7.07275 18.0066H8.16525V20.2878H7.07275V18.0066Z" fill="black"/>
<path d="M5.97314 15.7254H7.07283V18.0066H5.97314V15.7254Z" fill="black"/>
<path d="M5.97314 3.18997H7.07283V4.33432H5.97314V3.18997Z" fill="black"/>
<path d="M4.88037 12.3073H5.97287V15.7254H4.88037V12.3073Z" fill="black"/>
<path d="M4.88037 4.33432H5.97287V6.60805H4.88037V4.33432Z" fill="black"/>
<path d="M3.78809 6.60803H4.88059V12.3073H3.78809V6.60803Z" fill="black"/>
</g>
<defs>
<clipPath id="clip0_1363_6106">
<rect width="24" height="24.9746" fill="white" transform="translate(0 0.395935)"/>
</clipPath>
</defs>
</svg>
