<svg width="203" height="64" viewBox="0 0 203 64" fill="none" xmlns="http://www.w3.org/2000/svg">
<path d="M58.7405 12.1467H55.32L42.3384 49.4218H45.7589L58.7405 12.1467Z" fill="#FEFFFF"/>
<path d="M61.8379 44.0891C64.0464 45.4627 67.1976 46.54 70.5911 46.54C75.6276 46.54 78.5633 43.9275 78.5633 40.1569C78.5633 36.7095 76.5433 34.6626 71.3991 32.7773C65.1776 30.5688 61.3532 27.3369 61.3532 22.1388C61.3532 16.3213 66.2549 11.9851 73.6615 11.9851C77.5129 11.9851 80.3678 12.8739 82.0107 13.8165L80.664 17.7487C79.479 17.0216 76.9473 15.9712 73.4999 15.9712C68.3018 15.9712 66.3357 19.0146 66.3357 21.5732C66.3357 25.0745 68.652 26.7982 73.9039 28.7912C80.3408 31.2421 83.5459 34.2855 83.5459 39.7798C83.5459 45.5435 79.2635 50.6069 70.2679 50.6069C66.6051 50.6069 62.5921 49.5026 60.5452 48.156L61.8379 44.0891Z" fill="#FEFFFF"/>
<path d="M116.835 48.8024C115.085 49.6911 111.422 50.5799 106.789 50.5799C96.0699 50.5799 88.0439 43.9275 88.0439 31.6192C88.0439 19.8495 96.1238 11.9851 107.92 11.9851C112.607 11.9851 115.65 12.9816 116.943 13.6549L115.704 17.5871C113.9 16.6984 111.233 16.025 108.082 16.025C99.1672 16.025 93.242 21.6271 93.242 31.4307C93.242 40.6417 98.6016 46.4592 107.813 46.4592C110.856 46.4592 113.9 45.8397 115.893 44.8971L116.835 48.8024Z" fill="#FEFFFF"/>
<path d="M131.837 16.6983H120.255V12.6045H148.427V16.6983H136.819V49.9873H131.863V16.6983H131.837Z" fill="#FEFFFF"/>
<path d="M157.585 12.6045V49.9873H152.629V12.6045H157.585Z" fill="#FEFFFF"/>
<path d="M202.778 31.727L169.704 63.3732C169.704 63.3732 165.099 59.2794 166.472 53.5965C166.876 51.8997 167.792 50.3646 169.031 49.1526L186.564 31.6193L169.812 15.5942C168.277 14.1399 167.145 12.2815 166.661 10.2346C166.014 7.5413 166.203 3.87842 169.65 0.0539551L202.778 31.727Z" fill="#FEFFFF"/>
<path d="M188.611 45.301C188.611 45.301 192.813 36.5479 186.591 31.6191L169.327 48.7215C167.765 50.2567 166.715 52.2228 166.364 54.3774C166.041 56.3974 166.284 58.8752 168.061 61.4338L169.731 63.3999L188.611 45.301Z" fill="url(#paint0_linear_26_50)"/>
<path d="M0 31.673L33.0736 0.0268555C33.0736 0.0268555 37.6791 4.12065 36.3055 9.80349C35.9015 11.5003 34.9858 13.0354 33.7469 14.2474L16.2136 31.7807L32.9658 47.8058C34.501 49.2602 35.6322 51.1185 36.117 53.1654C36.7634 55.8587 36.5749 59.5216 33.1274 63.3461L0 31.673Z" fill="#FEFFFF"/>
<path d="M14.1664 18.0989C14.1664 18.0989 9.9649 26.8521 16.1864 31.7808L33.4504 14.6784C35.0125 13.1432 36.0629 11.1771 36.413 9.02252C36.7362 7.00255 36.4938 4.52472 34.7162 1.9661L33.0464 0L14.1664 18.0989Z" fill="url(#paint1_linear_26_50)"/>
<defs>
<linearGradient id="paint0_linear_26_50" x1="178.11" y1="63.366" x2="178.11" y2="31.6051" gradientUnits="userSpaceOnUse">
<stop stop-color="white"/>
<stop offset="1" stop-color="#CFCFCF"/>
</linearGradient>
<linearGradient id="paint1_linear_26_50" x1="24.6755" y1="0.0223543" x2="24.6755" y2="31.7833" gradientUnits="userSpaceOnUse">
<stop stop-color="white"/>
<stop offset="1" stop-color="#CFCFCF"/>
</linearGradient>
</defs>
</svg>

