<svg width="24" height="25" viewBox="0 0 24 25" fill="none" xmlns="http://www.w3.org/2000/svg">
<g clip-path="url(#clip0_1363_6165)">
<path d="M21.8574 3.93839H22.9499V7.35646H21.8574V3.93839Z" fill="black"/>
<path d="M20.7651 15.3295H21.8576V22.1731H20.7651V15.3295Z" fill="black"/>
<path d="M20.7651 2.79404H21.8576V3.93838H20.7651V2.79404Z" fill="black"/>
<path d="M19.6655 22.1731H20.7652V23.31H19.6655V22.1731Z" fill="black"/>
<path d="M19.6655 13.0557H20.7652V15.3295H19.6655V13.0557Z" fill="black"/>
<path d="M18.5728 7.35646H21.8574V8.49333H18.5728V7.35646Z" fill="black"/>
<path d="M19.6655 1.65718H20.7652V2.79405H19.6655V1.65718Z" fill="black"/>
<path d="M18.5728 11.9114H19.6653V13.0558H18.5728V11.9114Z" fill="black"/>
<path d="M4.33447 23.31H19.6654V24.4543H4.33447V23.31Z" fill="black"/>
<path d="M17.4805 5.07526H18.573V7.35647H17.4805V5.07526Z" fill="black"/>
<path d="M6.52686 3.93839H17.4806V5.07525H6.52686V3.93839Z" fill="black"/>
<path d="M15.2881 15.3295H16.3806V19.8919H15.2881V15.3295Z" fill="black"/>
<path d="M14.1885 19.8919H15.2882V21.0288H14.1885V19.8919Z" fill="black"/>
<path d="M14.1885 14.1926H15.2882V15.3295H14.1885V14.1926Z" fill="black"/>
<path d="M9.81152 21.0288H14.1887V22.1731H9.81152V21.0288Z" fill="black"/>
<path d="M13.0962 15.3295H10.904V16.4738H9.81152V18.755H10.904V19.8919H13.0962V18.755H14.1887V16.4738H13.0962V15.3295Z" fill="black"/>
<path d="M9.81152 13.0557H14.1887V14.1926H9.81152V13.0557Z" fill="black"/>
<path d="M8.71875 19.8919H9.81125V21.0288H8.71875V19.8919Z" fill="black"/>
<path d="M8.71875 14.1926H9.81125V15.3295H8.71875V14.1926Z" fill="black"/>
<path d="M7.61914 15.3295H8.71883V19.8919H7.61914V15.3295Z" fill="black"/>
<path d="M7.61895 9.63768H9.81113V11.9114H14.1883V9.63768H16.3805V11.9114H18.5727V10.7745H17.4802V8.49333H13.0958V10.7745H10.9036V8.49333H6.52645V10.7745H5.42676V11.9114H7.61895V9.63768Z" fill="black"/>
<path d="M5.42676 5.07526H6.52645V7.35647H5.42676V5.07526Z" fill="black"/>
<path d="M4.33447 0.520309H19.6654V1.65717H4.33447V0.520309Z" fill="black"/>
<path d="M4.33447 11.9114H5.42697V13.0558H4.33447V11.9114Z" fill="black"/>
<path d="M3.24219 22.1731H4.33469V23.31H3.24219V22.1731Z" fill="black"/>
<path d="M3.24219 13.0557H4.33469V15.3295H3.24219V13.0557Z" fill="black"/>
<path d="M2.14233 7.35646H5.42702V8.49333H2.14233V7.35646Z" fill="black"/>
<path d="M3.24219 1.65718H4.33469V2.79405H3.24219V1.65718Z" fill="black"/>
<path d="M2.14233 15.3295H3.24202V22.1731H2.14233V15.3295Z" fill="black"/>
<path d="M2.14233 2.79404H3.24202V3.93838H2.14233V2.79404Z" fill="black"/>
<path d="M1.0498 3.93839H2.1423V7.35646H1.0498V3.93839Z" fill="black"/>
</g>
<defs>
<clipPath id="clip0_1363_6165">
<rect width="24" height="24.9746" fill="white"/>
</clipPath>
</defs>
</svg>
