<svg width="678" height="477" viewBox="0 0 678 477" fill="none" xmlns="http://www.w3.org/2000/svg">
<mask id="path-1-inside-1_1658_211" fill="white">
<path fill-rule="evenodd" clip-rule="evenodd" d="M31.2851 0.41333H646.308V22.5187H656.704V42.8553H667.098V63.1921H677.493V414.222H668.253V434.558H657.859V454.895H647.464V477H31.8632V456.664H21.4931V436.589H11.0732V415.99H0.101562V63.1921H10.496V42.8554H20.8906V22.5188H31.2851V0.41333Z"/>
</mask>
<path fill-rule="evenodd" clip-rule="evenodd" d="M31.2851 0.41333H646.308V22.5187H656.704V42.8553H667.098V63.1921H677.493V414.222H668.253V434.558H657.859V454.895H647.464V477H31.8632V456.664H21.4931V436.589H11.0732V415.99H0.101562V63.1921H10.496V42.8554H20.8906V22.5188H31.2851V0.41333Z" fill="#C8CCFF"/>
<path d="M646.308 0.41333H649.308V-2.58667H646.308V0.41333ZM31.2851 0.41333V-2.58667H28.2851V0.41333H31.2851ZM646.308 22.5187H643.308V25.5187H646.308V22.5187ZM656.704 22.5187H659.704V19.5187H656.704V22.5187ZM656.704 42.8553H653.704V45.8553H656.704V42.8553ZM667.098 42.8553H670.098V39.8553H667.098V42.8553ZM667.098 63.1921H664.098V66.1921H667.098V63.1921ZM677.493 63.1921H680.493V60.1921H677.493V63.1921ZM677.493 414.222V417.222H680.493V414.222H677.493ZM668.253 414.222V411.222H665.253V414.222H668.253ZM668.253 434.558V437.558H671.253V434.558H668.253ZM657.859 434.558V431.558H654.859V434.558H657.859ZM657.859 454.895V457.895H660.859V454.895H657.859ZM647.464 454.895V451.895H644.464V454.895H647.464ZM647.464 477V480H650.464V477H647.464ZM31.8632 477H28.8632V480H31.8632V477ZM31.8632 456.664H34.8632V453.664H31.8632V456.664ZM21.4931 456.664H18.4931V459.664H21.4931V456.664ZM21.4931 436.589H24.4931V433.589H21.4931V436.589ZM11.0732 436.589H8.07319V439.589H11.0732V436.589ZM11.0732 415.99H14.0732V412.99H11.0732V415.99ZM0.101562 415.99H-2.89844V418.99H0.101562V415.99ZM0.101562 63.1921V60.1921H-2.89844V63.1921H0.101562ZM10.496 63.1921V66.1921H13.496V63.1921H10.496ZM10.496 42.8554V39.8554H7.49605V42.8554H10.496ZM20.8906 42.8554V45.8554H23.8906V42.8554H20.8906ZM20.8906 22.5188V19.5188H17.8906V22.5188H20.8906ZM31.2851 22.5188V25.5188H34.2851V22.5188H31.2851ZM646.308 -2.58667H31.2851V3.41333H646.308V-2.58667ZM649.308 22.5187V0.41333H643.308V22.5187H649.308ZM656.704 19.5187H646.308V25.5187H656.704V19.5187ZM659.704 42.8553V22.5187H653.704V42.8553H659.704ZM667.098 39.8553H656.704V45.8553H667.098V39.8553ZM670.098 63.1921V42.8553H664.098V63.1921H670.098ZM677.493 60.1921H667.098V66.1921H677.493V60.1921ZM680.493 414.222V63.1921H674.493V414.222H680.493ZM668.253 417.222H677.493V411.222H668.253V417.222ZM671.253 434.558V414.222H665.253V434.558H671.253ZM657.859 437.558H668.253V431.558H657.859V437.558ZM660.859 454.895V434.558H654.859V454.895H660.859ZM647.464 457.895H657.859V451.895H647.464V457.895ZM650.464 477V454.895H644.464V477H650.464ZM31.8632 480H647.464V474H31.8632V480ZM28.8632 456.664V477H34.8632V456.664H28.8632ZM21.4931 459.664H31.8632V453.664H21.4931V459.664ZM18.4931 436.589V456.664H24.4931V436.589H18.4931ZM11.0732 439.589H21.4931V433.589H11.0732V439.589ZM8.07319 415.99V436.589H14.0732V415.99H8.07319ZM0.101562 418.99H11.0732V412.99H0.101562V418.99ZM-2.89844 63.1921V415.99H3.10156V63.1921H-2.89844ZM10.496 60.1921H0.101562V66.1921H10.496V60.1921ZM7.49605 42.8554V63.1921H13.496V42.8554H7.49605ZM20.8906 39.8554H10.496V45.8554H20.8906V39.8554ZM17.8906 22.5188V42.8554H23.8906V22.5188H17.8906ZM31.2851 19.5188H20.8906V25.5188H31.2851V19.5188ZM28.2851 0.41333V22.5188H34.2851V0.41333H28.2851Z" fill="white" mask="url(#path-1-inside-1_1658_211)"/>
</svg>
