<svg width="697" height="434" viewBox="0 0 697 434" fill="none" xmlns="http://www.w3.org/2000/svg">
<mask id="path-1-inside-1_1658_188" fill="white">
<path fill-rule="evenodd" clip-rule="evenodd" d="M32.0866 0.315674H664.913V20.422H675.609V38.9199H686.304V57.4177H697V376.707H687.492V395.205H676.796V413.703H666.102V433.809H32.6813V415.311H21.9854V396.813H11.2897V378.316H0V57.4176H10.696V38.9199H21.3913V20.422H32.0866V0.315674Z"/>
</mask>
<path fill-rule="evenodd" clip-rule="evenodd" d="M32.0866 0.315674H664.913V20.422H675.609V38.9199H686.304V57.4177H697V376.707H687.492V395.205H676.796V413.703H666.102V433.809H32.6813V415.311H21.9854V396.813H11.2897V378.316H0V57.4176H10.696V38.9199H21.3913V20.422H32.0866V0.315674Z" fill="#1A1E53"/>
<path d="M664.913 0.315674H665.913V-0.684326H664.913V0.315674ZM32.0866 0.315674V-0.684326H31.0866V0.315674H32.0866ZM664.913 20.422H663.913V21.422H664.913V20.422ZM675.609 20.422H676.609V19.422H675.609V20.422ZM675.609 38.9199H674.609V39.9199H675.609V38.9199ZM686.304 38.9199H687.304V37.9199H686.304V38.9199ZM686.304 57.4177H685.304V58.4177H686.304V57.4177ZM697 57.4177H698V56.4177H697V57.4177ZM697 376.707V377.707H698V376.707H697ZM687.492 376.707V375.707H686.492V376.707H687.492ZM687.492 395.205V396.205H688.492V395.205H687.492ZM676.796 395.205V394.205H675.796V395.205H676.796ZM676.796 413.703V414.703H677.796V413.703H676.796ZM666.102 413.703V412.703H665.102V413.703H666.102ZM666.102 433.809V434.809H667.102V433.809H666.102ZM32.6813 433.809H31.6813V434.809H32.6813V433.809ZM32.6813 415.311H33.6813V414.311H32.6813V415.311ZM21.9854 415.311H20.9854V416.311H21.9854V415.311ZM21.9854 396.813H22.9854V395.813H21.9854V396.813ZM11.2897 396.813H10.2897V397.813H11.2897V396.813ZM11.2897 378.316H12.2897V377.316H11.2897V378.316ZM0 378.316H-1V379.316H0V378.316ZM0 57.4176V56.4176H-1V57.4176H0ZM10.696 57.4176V58.4176H11.696V57.4176H10.696ZM10.696 38.9199V37.9199H9.69599V38.9199H10.696ZM21.3913 38.9199V39.9199H22.3913V38.9199H21.3913ZM21.3913 20.422V19.422H20.3913V20.422H21.3913ZM32.0866 20.422V21.422H33.0866V20.422H32.0866ZM664.913 -0.684326H32.0866V1.31567H664.913V-0.684326ZM665.913 20.422V0.315674H663.913V20.422H665.913ZM675.609 19.422H664.913V21.422H675.609V19.422ZM676.609 38.9199V20.422H674.609V38.9199H676.609ZM686.304 37.9199H675.609V39.9199H686.304V37.9199ZM687.304 57.4177V38.9199H685.304V57.4177H687.304ZM697 56.4177H686.304V58.4177H697V56.4177ZM698 376.707V57.4177H696V376.707H698ZM687.492 377.707H697V375.707H687.492V377.707ZM688.492 395.205V376.707H686.492V395.205H688.492ZM676.796 396.205H687.492V394.205H676.796V396.205ZM677.796 413.703V395.205H675.796V413.703H677.796ZM666.102 414.703H676.796V412.703H666.102V414.703ZM667.102 433.809V413.703H665.102V433.809H667.102ZM32.6813 434.809H666.102V432.809H32.6813V434.809ZM31.6813 415.311V433.809H33.6813V415.311H31.6813ZM21.9854 416.311H32.6813V414.311H21.9854V416.311ZM20.9854 396.813V415.311H22.9854V396.813H20.9854ZM11.2897 397.813H21.9854V395.813H11.2897V397.813ZM10.2897 378.316V396.813H12.2897V378.316H10.2897ZM0 379.316H11.2897V377.316H0V379.316ZM-1 57.4176V378.316H1V57.4176H-1ZM10.696 56.4176H0V58.4176H10.696V56.4176ZM9.69599 38.9199V57.4176H11.696V38.9199H9.69599ZM21.3913 37.9199H10.696V39.9199H21.3913V37.9199ZM20.3913 20.422V38.9199H22.3913V20.422H20.3913ZM32.0866 19.422H21.3913V21.422H32.0866V19.422ZM31.0866 0.315674V20.422H33.0866V0.315674H31.0866Z" fill="black" mask="url(#path-1-inside-1_1658_188)"/>
</svg>
