<svg width="52" height="122" viewBox="0 0 52 122" fill="none" xmlns="http://www.w3.org/2000/svg">
<path d="M46.5677 15.5693H42.8135V17.5934H46.5677V15.5693Z" fill="#E2E2E2"/>
<path d="M49.5005 28.4313H7.06494V74.9781H49.5005V28.4313Z" fill="#433D4F"/>
<path d="M48.0389 29.6916H44.2998V54.9403H48.0389V29.6916Z" fill="#2A2633"/>
<path d="M38.6509 29.7765H32.2258V64.0341H38.6509V29.7765Z" fill="#2A2633"/>
<path d="M33.8486 31.4399H18.877V36.078H33.8486V31.4399Z" fill="#A5A5A5"/>
<path d="M4.60067 12.4037H2.45898V22.0364H4.60067V12.4037Z" fill="#6A6572"/>
<path d="M41.9871 10.3965H38.1572V23.2755H41.9871V10.3965Z" fill="#6A6572"/>
<path d="M7.2815 10.3965H3.45166V23.2755H7.2815V10.3965Z" fill="#5A5663"/>
<path d="M43.2416 68.8292H8.59668V79.1027H43.2416V68.8292Z" fill="white"/>
<path d="M34.5945 23.704H28.6733V26.8187H34.5945V23.704Z" fill="#D6AB8E"/>
<path d="M34.6699 15.285H28.8042V23.9417H34.6699V15.285Z" fill="#BFA08C"/>
<path d="M28.6531 22.1764H17.6826V26.6363H28.6531V22.1764Z" fill="#BFA08C"/>
<path d="M28.7944 7.82921H12.0842V24.052H28.7944V7.82921Z" fill="#D6AB8E"/>
<path d="M20.1973 4.8885H19.9756H12.0337V9.4163H19.9756H20.1973H27.9225V4.8885H20.1973Z" fill="#313131"/>
<path d="M34.6044 3.47963H28.6379V15.4929H34.6044V3.47963Z" fill="#313131"/>
<path d="M23.1905 26.4878L17.6826 26.4029L17.6675 31.406V34.0412H34.5137V26.4751H28.6531V31.3169H23.2006L23.1905 26.4878Z" fill="white"/>
<path d="M17.6676 34.9408H0.881836V69.4318C0.881836 69.4318 51.3046 69.1475 51.607 69.4318C51.9094 69.7161 51.607 34.9408 51.607 34.9408H17.6676Z" fill="white"/>
<path d="M27.6855 36.8418H23.7146V65.392H27.6855V36.8418Z" fill="#E2E2E2"/>
<path d="M6.45529 64.8064H0V70.3824H6.45529V64.8064Z" fill="#6A6572"/>
<path d="M45.8772 67.03H6.45508V69.3936H45.8772V67.03Z" fill="#6A6572"/>
<path d="M8.65723 79.0093V117.15H20.8825L20.9732 116.942C21.0185 116.823 21.2705 116.874 21.2251 116.993C21.2251 117.044 21.1798 117.095 21.1546 117.15H21.3612V79.0093H8.65723Z" fill="white"/>
<path d="M43.2367 79.0136H33.5361V117.15H43.2367V79.0136Z" fill="white"/>
<path d="M13.505 69.3979H8.40527V117.443H13.505V69.3979Z" fill="#E2E2E2"/>
<path d="M38.0965 79.0348H31.1021V117.349H38.0965V79.0348Z" fill="#E2E2E2"/>
<path d="M19.8646 20.0886H17.6523V24.0732H19.8646V20.0886Z" fill="#313131"/>
<path d="M29.8272 31.4399H21.9458V35.9168H29.8272V31.4399Z" fill="#E2E2E2"/>
<path d="M28.6582 26.4495H22.6968V31.9533H28.6582V26.4495Z" fill="white"/>
<path d="M28.6833 4.93512H24.2034V20.6657H28.6833V4.93512Z" fill="#DDB99F"/>
<path d="M17.6724 24.0265H12.2048V26.5896H17.6724V24.0265Z" fill="#313131"/>
<path d="M21.3813 117.154H1.94995V122H21.3813V117.154Z" fill="#6A6572"/>
<path d="M52 64.6621H45.7563V70.2381H52V64.6621Z" fill="#6A6572"/>
<path d="M16.5036 12.5649H13.2734V20.0292H16.5036V12.5649Z" fill="#BFA08C"/>
<path d="M19.144 8.60994H11.4944V10.5025H19.144V8.60994Z" fill="#313131"/>
<path d="M18.9072 10.6978H16.7302V12.531H18.9072V10.6978Z" fill="#313131"/>
<path d="M13.1224 10.6978H12.1145V12.531H13.1224V10.6978Z" fill="#313131"/>
<path d="M17.6525 17.5255H10.9553V20.0886H17.6525V17.5255Z" fill="#313131"/>
<path d="M39.5782 5.77107H5.15503V27.5826H39.5782V5.77107Z" fill="#E2E2E2"/>
<path d="M21.3311 90.9717H8.25928V92.7752H21.3311V90.9717Z" fill="#6A6572"/>
<path d="M43.2971 90.9717H31.0215V92.7752H43.2971V90.9717Z" fill="#6A6572"/>
<path d="M21.3309 103.545H8.31958V119.539H21.3309V103.545Z" fill="#6A6572"/>
<path d="M13.5554 103.545H8.31958V117.303H13.5554V103.545Z" fill="#4D4954"/>
<path d="M15.8684 117.154H1.94995V121.983H15.8684V117.154Z" fill="#4D4954"/>
<path d="M43.247 103.639H31.0771V121.856H43.247V103.639Z" fill="#6A6572"/>
<path d="M38.122 103.639H31.0771V121.953H38.122V103.639Z" fill="#4D4954"/>
<path d="M48.3618 117.154H31.1729V122H48.3618V117.154Z" fill="#4D4954"/>
<path d="M10.9652 76.9767H8.375V78.0036H10.9652V76.9767Z" fill="#6A6572"/>
<path d="M12.4318 69.3724H10.9653V76.9725H12.4318V69.3724Z" fill="#6A6572"/>
<path d="M40.6418 78.0036H43.2319V76.9767H40.6418V78.0036Z" fill="#6A6572"/>
<path d="M39.1752 76.9767H40.6416V69.3215H39.1752V76.9767Z" fill="#6A6572"/>
<path d="M12.0134 41.1703H6.45508V66.9834H12.0134V41.1703Z" fill="#E2E2E2"/>
<path d="M45.7463 41.1703H40.188V67.1149H45.7463V41.1703Z" fill="#E2E2E2"/>
<path d="M12.0184 67.03H6.43994V69.3979H12.0184V67.03Z" fill="#5A5663"/>
<path d="M45.7514 67.03H40.178V69.4064H45.7514V67.03Z" fill="#5A5663"/>
<path d="M51.6827 41.6285H46.6484V43.3344H51.6827V41.6285Z" fill="#FFBC00"/>
<path d="M36.4185 3.2972H8.03735V7.9141H36.4185V3.2972Z" fill="#E2E2E2"/>
<path d="M34.6801 1.71428H10.9653V4.99449H34.6801V1.71428Z" fill="#E2E2E2"/>
<path d="M31.8529 0H13.3286V3.6112H31.8529V0Z" fill="#E2E2E2"/>
<path d="M8.21893 29.1612L36.4136 29.1612V24.5443L8.21893 24.5443V29.1612Z" fill="#E2E2E2"/>
<path d="M10.7034 30.744L34.5291 30.744V27.4638L10.7034 27.4638V30.744Z" fill="#E2E2E2"/>
<path d="M13.3591 32.4541H32.2664V28.8429H13.3591V32.4541Z" fill="#E2E2E2"/>
<path d="M30.6286 32.4286H17.6072V34.0666H30.6286V32.4286Z" fill="#A5A5A5"/>
<path d="M17.6121 30.5616H13.3337V32.4584H17.6121V30.5616Z" fill="#A5A5A5"/>
<path d="M12.9256 27.8542H10.6982V30.744H12.9256V27.8542Z" fill="#A5A5A5"/>
<path d="M10.7438 26.5175H8.073V29.1994H10.7438V26.5175Z" fill="#A5A5A5"/>
<path d="M8.11818 5.77107H5.14502V27.5868H8.11818V5.77107Z" fill="#A5A5A5"/>
<path d="M16.0702 29.0084H12.8401V30.7482H16.0702V29.0084Z" fill="#A5A5A5"/>
<path d="M10.6227 5.76257H7.92163V7.93948H10.6227V5.76257Z" fill="#A5A5A5"/>
<path d="M11.0004 4.46829H8.03735V5.79226H11.0004V4.46829Z" fill="#A5A5A5"/>
<path d="M13.1221 4.48103H10.29V5.82622H13.1221V4.48103Z" fill="#A5A5A5"/>
<path d="M13.117 3.23347H10.8896V4.48106H13.117V3.23347Z" fill="#A5A5A5"/>
<path d="M37.3713 7.96499H34.645V5.85598H33.1484V4.5108H30.7094V3.05104H14.745V4.5108H12.7041V5.85598H10.1845V7.96499H7.69507V26.5345H10.3407V27.8754H12.4773V29.2206H14.7752V30.6846H31.0671V29.2206H33.098V27.8754H34.645V26.5345H37.3713V7.96499Z" fill="#313131"/>
<path d="M34.645 7.96499V5.85598H33.1484V4.5108H30.7094V3.05104H14.745V4.5108H12.7041V5.85598H10.1845V7.96499H7.69507V14.5891H10.0585V13.2439H12.0943V11.7799H28.0587V13.2439H30.4977V14.5891H31.9994V16.6938H34.7206V26.5345H37.3713V7.96499H34.645Z" fill="#1E1E1E"/>
<path d="M6.51573 49.3135H0.881836V50.5653H6.51573V49.3135Z" fill="#6A6572"/>
<path d="M51.7679 49.3135H45.7812V50.5653H51.7679V49.3135Z" fill="#6A6572"/>
<path d="M31.0771 32.4244H28.5071V34.0794H31.0771V32.4244Z" fill="#E2E2E2"/>
<path d="M14.7547 14.3981H11.8269V16.8636H14.7547V14.3981Z" fill="#1E1E1E"/>
<path d="M11.1871 17.4025H8.25928V19.868H11.1871V17.4025Z" fill="#1E1E1E"/>
<path d="M30.9058 8.29167H28.1997V10.5704H30.9058V8.29167Z" fill="#313131"/>
<path d="M45.7814 52.1608H6.45508V54.4396H45.7814V52.1608Z" fill="#6A6572"/>
<path d="M12.0335 52.1608H6.45508V54.4396H12.0335V52.1608Z" fill="#5A5663"/>
<path d="M45.7816 52.1608H40.1477V54.4396H45.7816V52.1608Z" fill="#5A5663"/>
<path d="M39.8101 36.7442H29.2175V39.2097H39.8101V36.7442Z" fill="#6A6572"/>
<path d="M16.317 53.5866H15.1328V68.0569H16.317V53.5866Z" fill="#6A6572"/>
<path d="M37.109 53.5866H35.9248V68.0569H37.109V53.5866Z" fill="#6A6572"/>
<path d="M43.2469 12.4037H41.1052V22.0364H43.2469V12.4037Z" fill="#6A6572"/>
<path d="M48.941 65.7017H45.7461V67.0002H48.941V65.7017Z" fill="#5A5663"/>
<path d="M6.41999 65.7017H3.2251V67.0002H6.41999V65.7017Z" fill="#5A5663"/>
<path d="M22.46 41.1575H19.9807V43.2453H22.46V41.1575Z" fill="#6A6572"/>
<path d="M18.4031 41.1575H15.9238V43.2453H18.4031V41.1575Z" fill="#6A6572"/>
<path d="M48.8253 17.5935H46.5728V28.4101H48.8253V17.5935Z" fill="white"/>
</svg>
