<svg width="697" height="311" viewBox="0 0 697 311" fill="none" xmlns="http://www.w3.org/2000/svg">
<mask id="path-1-inside-1_1328_1855" fill="white">
<path fill-rule="evenodd" clip-rule="evenodd" d="M32.0866 0H664.914V14.4127H675.609V27.6725H686.305V40.9321H697V269.807H687.493V283.066H676.797V296.326H666.102V310.739H32.6813V297.479H21.9854V284.219H11.2898V270.96H0V40.9321H10.6959V27.6725H21.3913V14.4127H32.0866V0ZM0 11.5303V20.1778H2.57492e-05V11.5303H0Z"/>
</mask>
<path fill-rule="evenodd" clip-rule="evenodd" d="M32.0866 0H664.914V14.4127H675.609V27.6725H686.305V40.9321H697V269.807H687.493V283.066H676.797V296.326H666.102V310.739H32.6813V297.479H21.9854V284.219H11.2898V270.96H0V40.9321H10.6959V27.6725H21.3913V14.4127H32.0866V0ZM0 11.5303V20.1778H2.57492e-05V11.5303H0Z" fill="#1A1E53"/>
<path d="M664.914 0H665.914V-1H664.914V0ZM32.0866 0V-1H31.0866V0H32.0866ZM664.914 14.4127H663.914V15.4127H664.914V14.4127ZM675.609 14.4127H676.609V13.4127H675.609V14.4127ZM675.609 27.6725H674.609V28.6725H675.609V27.6725ZM686.305 27.6725H687.305V26.6725H686.305V27.6725ZM686.305 40.9321H685.305V41.9321H686.305V40.9321ZM697 40.9321H698V39.9321H697V40.9321ZM697 269.807V270.807H698V269.807H697ZM687.493 269.807V268.807H686.493V269.807H687.493ZM687.493 283.066V284.066H688.493V283.066H687.493ZM676.797 283.066V282.066H675.797V283.066H676.797ZM676.797 296.326V297.326H677.797V296.326H676.797ZM666.102 296.326V295.326H665.102V296.326H666.102ZM666.102 310.739V311.739H667.102V310.739H666.102ZM32.6813 310.739H31.6813V311.739H32.6813V310.739ZM32.6813 297.479H33.6813V296.479H32.6813V297.479ZM21.9854 297.479H20.9854V298.479H21.9854V297.479ZM21.9854 284.219H22.9854V283.219H21.9854V284.219ZM11.2898 284.219H10.2898V285.219H11.2898V284.219ZM11.2898 270.96H12.2898V269.96H11.2898V270.96ZM0 270.96H-1V271.96H0V270.96ZM0 40.9321V39.9321H-1V40.9321H0ZM10.6959 40.9321V41.9321H11.6959V40.9321H10.6959ZM10.6959 27.6725V26.6725H9.6959V27.6725H10.6959ZM21.3913 27.6725V28.6725H22.3913V27.6725H21.3913ZM21.3913 14.4127V13.4127H20.3913V14.4127H21.3913ZM32.0866 14.4127V15.4127H33.0866V14.4127H32.0866ZM0 20.1778H-1V21.1778H0V20.1778ZM0 11.5303V10.5303H-1V11.5303H0ZM2.57492e-05 20.1778V21.1778H1.00003V20.1778H2.57492e-05ZM2.57492e-05 11.5303H1.00003V10.5303H2.57492e-05V11.5303ZM664.914 -1H32.0866V1H664.914V-1ZM665.914 14.4127V0H663.914V14.4127H665.914ZM675.609 13.4127H664.914V15.4127H675.609V13.4127ZM676.609 27.6725V14.4127H674.609V27.6725H676.609ZM686.305 26.6725H675.609V28.6725H686.305V26.6725ZM687.305 40.9321V27.6725H685.305V40.9321H687.305ZM697 39.9321H686.305V41.9321H697V39.9321ZM698 269.807V40.9321H696V269.807H698ZM687.493 270.807H697V268.807H687.493V270.807ZM688.493 283.066V269.807H686.493V283.066H688.493ZM676.797 284.066H687.493V282.066H676.797V284.066ZM677.797 296.326V283.066H675.797V296.326H677.797ZM666.102 297.326H676.797V295.326H666.102V297.326ZM667.102 310.739V296.326H665.102V310.739H667.102ZM32.6813 311.739H666.102V309.739H32.6813V311.739ZM31.6813 297.479V310.739H33.6813V297.479H31.6813ZM21.9854 298.479H32.6813V296.479H21.9854V298.479ZM20.9854 284.219V297.479H22.9854V284.219H20.9854ZM11.2898 285.219H21.9854V283.219H11.2898V285.219ZM10.2898 270.96V284.219H12.2898V270.96H10.2898ZM0 271.96H11.2898V269.96H0V271.96ZM-1 40.9321V270.96H1V40.9321H-1ZM10.6959 39.9321H0V41.9321H10.6959V39.9321ZM9.6959 27.6725V40.9321H11.6959V27.6725H9.6959ZM21.3913 26.6725H10.6959V28.6725H21.3913V26.6725ZM20.3913 14.4127V27.6725H22.3913V14.4127H20.3913ZM32.0866 13.4127H21.3913V15.4127H32.0866V13.4127ZM31.0866 0V14.4127H33.0866V0H31.0866ZM1 20.1778V11.5303H-1V20.1778H1ZM2.57492e-05 19.1778H0V21.1778H2.57492e-05V19.1778ZM-0.999974 11.5303V20.1778H1.00003V11.5303H-0.999974ZM0 12.5303H2.57492e-05V10.5303H0V12.5303Z" fill="black" mask="url(#path-1-inside-1_1328_1855)"/>
</svg>
