<svg xmlns="http://www.w3.org/2000/svg" width="657" height="220" viewBox="0 0 657 220" fill="none">
<mask id="path-1-inside-1_1363_6071" fill="white">
<path fill-rule="evenodd" clip-rule="evenodd" d="M9.37111 4.26609H15.145V0.505524H643.211V4.89302H648.984V9.28051H652.192V16.1754H656.683V174.757H652.833V181.652H649.625V186.04H643.852V190.974H293.893V216.126H285.232V209.858H276.892V203.59H268.552V197.322H260.212V191.054H251.322L251.231 190.974H14.5034V186.04H8.72951V181.652H5.52175V174.757H0.389404V15.5486H6.16359V8.65356H9.37111V4.26609ZM283.949 219.26V219.398L283.791 219.26H283.949Z" fill="#000000"/>
</mask>
<path fill-rule="evenodd" clip-rule="evenodd" d="M9.37111 4.26609H15.145V0.505524H643.211V4.89302H648.984V9.28051H652.192V16.1754H656.683V174.757H652.833V181.652H649.625V186.04H643.852V190.974H293.893V216.126H285.232V209.858H276.892V203.59H268.552V197.322H260.212V191.054H251.322L251.231 190.974H14.5034V186.04H8.72951V181.652H5.52175V174.757H0.389404V15.5486H6.16359V8.65356H9.37111V4.26609ZM283.949 219.26V219.398L283.791 219.26H283.949Z" fill="#000000"/>
<path d="M9.37111 4.26609V2.26609H7.37111V4.26609H9.37111ZM15.145 4.26609V6.26609H17.145V4.26609H15.145ZM15.145 0.505524V-1.49448H13.145V0.505524H15.145ZM643.211 0.505524H645.211V-1.49448H643.211V0.505524ZM643.211 4.89302H641.211V6.89302H643.211V4.89302ZM648.984 4.89302H650.984V2.89302H648.984V4.89302ZM648.984 9.28051H646.984V11.2805H648.984V9.28051ZM652.192 9.28051H654.192V7.28051H652.192V9.28051ZM652.192 16.1754H650.192V18.1754H652.192V16.1754ZM656.683 16.1754H658.683V14.1754H656.683V16.1754ZM656.683 174.757V176.757H658.683V174.757H656.683ZM652.833 174.757V172.757H650.833V174.757H652.833ZM652.833 181.652V183.652H654.833V181.652H652.833ZM649.625 181.652V179.652H647.625V181.652H649.625ZM649.625 186.04V188.04H651.625V186.04H649.625ZM643.852 186.04V184.04H641.852V186.04H643.852ZM643.852 190.974V192.974H645.852V190.974H643.852ZM293.893 190.974V188.974H291.893V190.974H293.893ZM293.893 216.126V218.126H295.893V216.126H293.893ZM285.232 216.126H283.232V218.126H285.232V216.126ZM285.232 209.858H287.232V207.858H285.232V209.858ZM276.892 209.858H274.892V211.858H276.892V209.858ZM276.892 203.59H278.892V201.59H276.892V203.59ZM268.552 203.59H266.552V205.59H268.552V203.59ZM268.552 197.322H270.552V195.322H268.552V197.322ZM260.212 197.322H258.212V199.322H260.212V197.322ZM260.212 191.054H262.212V189.054H260.212V191.054ZM251.322 191.054L250.011 192.564L250.575 193.054H251.322V191.054ZM251.231 190.974L252.542 189.465L251.978 188.974H251.231V190.974ZM14.5034 190.974H12.5034V192.974H14.5034V190.974ZM14.5034 186.04H16.5034V184.04H14.5034V186.04ZM8.72951 186.04H6.72951V188.04H8.72951V186.04ZM8.72951 181.652H10.7295V179.652H8.72951V181.652ZM5.52175 181.652H3.52175V183.652H5.52175V181.652ZM5.52175 174.757H7.52175V172.757H5.52175V174.757ZM0.389404 174.757H-1.6106V176.757H0.389404V174.757ZM0.389404 15.5486V13.5486H-1.6106V15.5486H0.389404ZM6.16359 15.5486V17.5486H8.16359V15.5486H6.16359ZM6.16359 8.65356V6.65356H4.16359V8.65356H6.16359ZM9.37111 8.65356V10.6536H11.3711V8.65356H9.37111ZM283.949 219.398L282.637 220.907L285.949 223.784V219.398H283.949ZM283.949 219.26H285.949V217.26H283.949V219.26ZM283.791 219.26V217.26H278.44L282.48 220.77L283.791 219.26ZM9.37111 6.26609H15.145V2.26609H9.37111V6.26609ZM17.145 4.26609V0.505524H13.145V4.26609H17.145ZM643.211 -1.49448H15.145V2.50552H643.211V-1.49448ZM645.211 4.89302V0.505524H641.211V4.89302H645.211ZM648.984 2.89302H643.211V6.89302H648.984V2.89302ZM650.984 9.28051V4.89302H646.984V9.28051H650.984ZM652.192 7.28051H648.984V11.2805H652.192V7.28051ZM654.192 16.1754V9.28051H650.192V16.1754H654.192ZM656.683 14.1754H652.192V18.1754H656.683V14.1754ZM658.683 174.757V16.1754H654.683V174.757H658.683ZM652.833 176.757H656.683V172.757H652.833V176.757ZM654.833 181.652V174.757H650.833V181.652H654.833ZM649.625 183.652H652.833V179.652H649.625V183.652ZM651.625 186.04V181.652H647.625V186.04H651.625ZM643.852 188.04H649.625V184.04H643.852V188.04ZM645.852 190.974V186.04H641.852V190.974H645.852ZM293.893 192.974H643.852V188.974H293.893V192.974ZM295.893 216.126V190.974H291.893V216.126H295.893ZM285.232 218.126H293.893V214.126H285.232V218.126ZM283.232 209.858V216.126H287.232V209.858H283.232ZM276.892 211.858H285.232V207.858H276.892V211.858ZM274.892 203.59V209.858H278.892V203.59H274.892ZM268.552 205.59H276.892V201.59H268.552V205.59ZM266.552 197.322V203.59H270.552V197.322H266.552ZM260.212 199.322H268.552V195.322H260.212V199.322ZM258.212 191.054V197.322H262.212V191.054H258.212ZM251.322 193.054H260.212V189.054H251.322V193.054ZM249.919 192.484L250.011 192.564L252.634 189.544L252.542 189.465L249.919 192.484ZM14.5034 192.974H251.231V188.974H14.5034V192.974ZM12.5034 186.04V190.974H16.5034V186.04H12.5034ZM8.72951 188.04H14.5034V184.04H8.72951V188.04ZM6.72951 181.652V186.04H10.7295V181.652H6.72951ZM5.52175 183.652H8.72951V179.652H5.52175V183.652ZM3.52175 174.757V181.652H7.52175V174.757H3.52175ZM0.389404 176.757H5.52175V172.757H0.389404V176.757ZM-1.6106 15.5486V174.757H2.3894V15.5486H-1.6106ZM6.16359 13.5486H0.389404V17.5486H6.16359V13.5486ZM4.16359 8.65356V15.5486H8.16359V8.65356H4.16359ZM9.37111 6.65356H6.16359V10.6536H9.37111V6.65356ZM7.37111 4.26609V8.65356H11.3711V4.26609H7.37111ZM285.949 219.398V219.26H281.949V219.398H285.949ZM282.48 220.77L282.637 220.907L285.261 217.888L285.103 217.751L282.48 220.77ZM283.949 217.26H283.791V221.26H283.949V217.26Z" fill="white" mask="url(#path-1-inside-1_1363_6071)"/>
</svg>