<svg width="678" height="342" viewBox="0 0 678 342" fill="none" xmlns="http://www.w3.org/2000/svg">
<mask id="path-1-inside-1_1328_1878" fill="white">
<path fill-rule="evenodd" clip-rule="evenodd" d="M31.2854 0.370972H646.308V16.2166H656.703V30.7944H667.098V45.3723H677.493V296.999H668.253V311.577H657.859V326.155H647.464V342H31.8634V327.422H21.493V313.032H11.0735V298.267H0.101562V45.3723H10.4962V30.7944H20.8909V16.2166H31.2854V0.370972Z"/>
</mask>
<path fill-rule="evenodd" clip-rule="evenodd" d="M31.2854 0.370972H646.308V16.2166H656.703V30.7944H667.098V45.3723H677.493V296.999H668.253V311.577H657.859V326.155H647.464V342H31.8634V327.422H21.493V313.032H11.0735V298.267H0.101562V45.3723H10.4962V30.7944H20.8909V16.2166H31.2854V0.370972Z" fill="#C8CCFF"/>
<path d="M646.308 0.370972H649.308V-2.62903H646.308V0.370972ZM31.2854 0.370972V-2.62903H28.2854V0.370972H31.2854ZM646.308 16.2166H643.308V19.2166H646.308V16.2166ZM656.703 16.2166H659.703V13.2166H656.703V16.2166ZM656.703 30.7944H653.703V33.7944H656.703V30.7944ZM667.098 30.7944H670.098V27.7944H667.098V30.7944ZM667.098 45.3723H664.098V48.3723H667.098V45.3723ZM677.493 45.3723H680.493V42.3723H677.493V45.3723ZM677.493 296.999V299.999H680.493V296.999H677.493ZM668.253 296.999V293.999H665.253V296.999H668.253ZM668.253 311.577V314.577H671.253V311.577H668.253ZM657.859 311.577V308.577H654.859V311.577H657.859ZM657.859 326.155V329.155H660.859V326.155H657.859ZM647.464 326.155V323.155H644.464V326.155H647.464ZM647.464 342V345H650.464V342H647.464ZM31.8634 342H28.8634V345H31.8634V342ZM31.8634 327.422H34.8634V324.422H31.8634V327.422ZM21.493 327.422H18.493V330.422H21.493V327.422ZM21.493 313.032H24.493V310.032H21.493V313.032ZM11.0735 313.032H8.07349V316.032H11.0735V313.032ZM11.0735 298.267H14.0735V295.267H11.0735V298.267ZM0.101562 298.267H-2.89844V301.267H0.101562V298.267ZM0.101562 45.3723V42.3723H-2.89844V45.3723H0.101562ZM10.4962 45.3723V48.3723H13.4962V45.3723H10.4962ZM10.4962 30.7944V27.7944H7.49617V30.7944H10.4962ZM20.8909 30.7944V33.7944H23.8909V30.7944H20.8909ZM20.8909 16.2166V13.2166H17.8909V16.2166H20.8909ZM31.2854 16.2166V19.2166H34.2854V16.2166H31.2854ZM646.308 -2.62903H31.2854V3.37097H646.308V-2.62903ZM649.308 16.2166V0.370972H643.308V16.2166H649.308ZM656.703 13.2166H646.308V19.2166H656.703V13.2166ZM659.703 30.7944V16.2166H653.703V30.7944H659.703ZM667.098 27.7944H656.703V33.7944H667.098V27.7944ZM670.098 45.3723V30.7944H664.098V45.3723H670.098ZM677.493 42.3723H667.098V48.3723H677.493V42.3723ZM680.493 296.999V45.3723H674.493V296.999H680.493ZM668.253 299.999H677.493V293.999H668.253V299.999ZM671.253 311.577V296.999H665.253V311.577H671.253ZM657.859 314.577H668.253V308.577H657.859V314.577ZM660.859 326.155V311.577H654.859V326.155H660.859ZM647.464 329.155H657.859V323.155H647.464V329.155ZM650.464 342V326.155H644.464V342H650.464ZM31.8634 345H647.464V339H31.8634V345ZM28.8634 327.422V342H34.8634V327.422H28.8634ZM21.493 330.422H31.8634V324.422H21.493V330.422ZM18.493 313.032V327.422H24.493V313.032H18.493ZM11.0735 316.032H21.493V310.032H11.0735V316.032ZM8.07349 298.267V313.032H14.0735V298.267H8.07349ZM0.101562 301.267H11.0735V295.267H0.101562V301.267ZM-2.89844 45.3723V298.267H3.10156V45.3723H-2.89844ZM10.4962 42.3723H0.101562V48.3723H10.4962V42.3723ZM7.49617 30.7944V45.3723H13.4962V30.7944H7.49617ZM20.8909 27.7944H10.4962V33.7944H20.8909V27.7944ZM17.8909 16.2166V30.7944H23.8909V16.2166H17.8909ZM31.2854 13.2166H20.8909V19.2166H31.2854V13.2166ZM28.2854 0.370972V16.2166H34.2854V0.370972H28.2854Z" fill="white" mask="url(#path-1-inside-1_1328_1878)"/>
</svg>
