<svg xmlns="http://www.w3.org/2000/svg" width="53" height="60" viewBox="0 0 53 60" fill="none">
<rect x="18.9287" y="51.4286" width="3.78571" height="4.28571" fill="#E30CB4"/>
<rect x="15.1428" y="51.4286" width="3.78571" height="4.28571" fill="#E30CB4"/>
<rect x="15.1428" y="51.4286" width="3.78571" height="4.28571" fill="#E30CB4"/>
<rect x="11.3572" y="47.1429" width="3.78571" height="4.28571" fill="#E30CB4"/>
<rect x="7.57129" y="47.1429" width="3.78571" height="4.28571" fill="#E30CB4"/>
<rect x="7.57129" y="42.8571" width="3.78571" height="4.28571" fill="#E30CB4"/>
<rect x="3.78589" y="38.5714" width="3.78571" height="4.28571" fill="#E30CB4"/>
<rect x="3.78589" y="34.2857" width="3.78571" height="4.28571" fill="#E30CB4"/>
<rect x="11.3572" y="4.28571" width="3.78571" height="4.28571" fill="#E30CB4"/>
<rect x="3.78589" y="12.8571" width="3.78571" height="4.28571" fill="#E30CB4"/>
<rect x="7.57129" y="8.57141" width="3.78571" height="4.28571" fill="#E30CB4"/>
<rect x="7.57129" y="4.28571" width="3.78571" height="4.28571" fill="#E30CB4"/>
<rect x="3.78589" y="21.4286" width="3.78571" height="4.28571" fill="#E30CB4"/>
<rect x="3.78589" y="17.1429" width="3.78571" height="4.28571" fill="#E30CB4"/>
<rect x="3.78589" y="25.7143" width="3.78571" height="4.28571" fill="#E30CB4"/>
<rect x="3.78589" y="30" width="3.78571" height="4.28571" fill="#E30CB4"/>
<rect x="22.7141" y="51.4286" width="3.78571" height="4.28571" fill="#E30CB4"/>
<rect x="26.5" y="51.4286" width="3.78571" height="4.28571" fill="#E30CB4"/>
<rect x="18.9287" width="3.78571" height="4.28571" fill="#E30CB4"/>
<rect x="22.7141" width="3.78571" height="4.28571" fill="#E30CB4"/>
<rect x="26.5" width="3.78571" height="4.28571" fill="#E30CB4"/>
<rect x="30.2859" width="3.78571" height="4.28571" fill="#E30CB4"/>
<rect x="34.0713" width="3.78571" height="4.28571" fill="#E30CB4"/>
<rect x="49.2141" y="38.5714" width="3.78571" height="4.28571" fill="#E30CB4"/>
<rect x="49.2141" y="42.8571" width="3.78571" height="4.28571" fill="#E30CB4"/>
<rect x="45.4287" y="47.1429" width="3.78571" height="4.28571" fill="#E30CB4"/>
<rect x="41.6428" y="51.4286" width="3.78571" height="4.28571" fill="#E30CB4"/>
<rect x="37.8572" y="51.4286" width="3.78571" height="4.28571" fill="#E30CB4"/>
<rect x="34.0713" y="51.4286" width="3.78571" height="4.28571" fill="#E30CB4"/>
<rect x="30.2859" y="51.4286" width="3.78571" height="4.28571" fill="#E30CB4"/>
<rect x="49.2141" y="34.2857" width="3.78571" height="4.28571" fill="#E30CB4"/>
<rect x="49.2141" y="30" width="3.78571" height="4.28571" fill="#E30CB4"/>
<rect x="49.2141" y="25.7143" width="3.78571" height="4.28571" fill="#E30CB4"/>
<rect x="49.2141" y="21.4286" width="3.78571" height="4.28571" fill="#E30CB4"/>
<rect x="49.2141" y="17.1429" width="3.78571" height="4.28571" fill="#E30CB4"/>
<rect x="49.2141" y="12.8571" width="3.78571" height="4.28571" fill="#E30CB4"/>
<rect x="49.2141" y="8.57141" width="3.78571" height="4.28571" fill="#E30CB4"/>
<rect x="45.4287" y="4.28571" width="3.78571" height="4.28571" fill="#E30CB4"/>
<rect x="15.1428" width="3.78571" height="4.28571" fill="#E30CB4"/>
<rect x="41.6428" width="3.78571" height="4.28571" fill="#E30CB4"/>
<rect x="37.8572" width="3.78571" height="4.28571" fill="#E30CB4"/>
<rect x="45.4287" y="38.5714" width="3.78571" height="4.28571" fill="#FF5CDB"/>
<rect x="41.6428" y="42.8571" width="3.78571" height="4.28571" fill="#FF5CDB"/>
<rect x="37.8572" y="42.8571" width="3.78571" height="4.28571" fill="#FF5CDB"/>
<rect x="34.0713" y="42.8571" width="3.78571" height="4.28571" fill="#FF5CDB"/>
<rect x="30.2859" y="42.8571" width="3.78571" height="4.28571" fill="#FF5CDB"/>
<rect x="26.5" y="42.8571" width="3.78571" height="4.28571" fill="#FF5CDB"/>
<rect x="22.7141" y="42.8571" width="3.78571" height="4.28571" fill="#FF5CDB"/>
<rect x="18.9287" y="42.8571" width="3.78571" height="4.28571" fill="#FF5CDB"/>
<rect x="15.1428" y="38.5714" width="3.78571" height="4.28571" fill="#FF5CDB"/>
<rect x="11.3572" y="34.2857" width="3.78571" height="4.28571" fill="#FF5CDB"/>
<rect x="11.3572" y="30" width="3.78571" height="4.28571" fill="#FF5CDB"/>
<rect x="11.3572" y="25.7143" width="3.78571" height="4.28571" fill="#FF5CDB"/>
<rect x="11.3572" y="21.4286" width="3.78571" height="4.28571" fill="#FF5CDB"/>
<path d="M11.3572 17.1429H15.1429V21.4286H11.3572V17.1429Z" fill="#FF5CDB"/>
<rect x="11.3572" y="12.8571" width="3.78571" height="4.28571" fill="#FF5CDB"/>
<rect x="11.3572" y="42.8571" width="3.78571" height="4.28571" fill="#FF5CDB"/>
<rect x="30.2859" y="17.1429" width="3.78571" height="4.28571" fill="#FF00C7"/>
<rect x="30.2859" y="21.4286" width="3.78571" height="4.28571" fill="#FF00C7"/>
<rect x="30.2859" y="25.7143" width="3.78571" height="4.28571" fill="#FF00C7"/>
<rect x="30.2859" y="30" width="3.78571" height="4.28571" fill="#FF00C7"/>
<rect x="30.2859" y="34.2857" width="3.78571" height="4.28571" fill="#FF00C7"/>
<rect x="30.2859" y="12.8571" width="3.78571" height="4.28571" fill="#FF00C7"/>
<rect x="26.5" y="12.8571" width="3.78571" height="4.28571" fill="#FF00C7"/>
<rect x="26.5" y="17.1429" width="3.78571" height="4.28571" fill="#FF00C7"/>
<rect x="26.5" y="21.4286" width="3.78571" height="4.28571" fill="#FF00C7"/>
<rect x="22.7141" y="21.4286" width="3.78571" height="4.28571" fill="#FF00C7"/>
<rect x="22.7141" y="25.7143" width="3.78571" height="4.28571" fill="#FF00C7"/>
<rect x="27.2573" y="25.7143" width="3.78571" height="4.28571" fill="#FF00C7"/>
<rect x="25.4905" y="25.7143" width="3.78571" height="4.28571" fill="#FF00C7"/>
<rect x="30.2859" y="38.5714" width="3.78571" height="4.28571" fill="#FF00C7"/>
<rect x="26.5" y="38.5714" width="3.78571" height="4.28571" fill="#FF00C7"/>
<rect x="22.7141" y="38.5714" width="3.78571" height="4.28571" fill="#FF00C7"/>
<rect x="34.0713" y="38.5714" width="3.78571" height="4.28571" fill="#FF00C7"/>
<rect x="37.8572" y="38.5714" width="3.78571" height="4.28571" fill="#FF00C7"/>
<rect x="41.6428" y="38.5714" width="3.78571" height="4.28571" fill="#FF00C7"/>
<rect x="18.9287" y="38.5714" width="3.78571" height="4.28571" fill="#FF00C7"/>
<rect x="30.2859" y="4.28571" width="3.78571" height="4.28571" fill="#FF00C7"/>
<rect x="26.5" y="4.28571" width="3.78571" height="4.28571" fill="#FF00C7"/>
<rect x="22.7141" y="4.28571" width="3.78571" height="4.28571" fill="#FF00C7"/>
<rect x="34.0713" y="4.28571" width="3.78571" height="4.28571" fill="#FF00C7"/>
<rect x="37.8572" y="4.28571" width="3.78571" height="4.28571" fill="#FF00C7"/>
<rect x="41.6428" y="4.28571" width="3.78571" height="4.28571" fill="#FF00C7"/>
<rect x="18.9287" y="4.28571" width="3.78571" height="4.28571" fill="#FF00C7"/>
<rect x="15.1428" y="4.28571" width="3.78571" height="4.28571" fill="#FF00C7"/>
<rect x="49.2141" y="21.4286" width="4.28571" height="3.78571" transform="rotate(90 49.2141 21.4286)" fill="#FF00C7"/>
<rect x="49.2141" y="17.1429" width="4.28571" height="3.78571" transform="rotate(90 49.2141 17.1429)" fill="#FF00C7"/>
<rect x="49.2141" y="12.8571" width="4.28571" height="3.78571" transform="rotate(90 49.2141 12.8571)" fill="#FF00C7"/>
<rect x="49.2141" y="25.7143" width="4.28571" height="3.78571" transform="rotate(90 49.2141 25.7143)" fill="#FF00C7"/>
<rect x="49.2141" y="30" width="4.28571" height="3.78571" transform="rotate(90 49.2141 30)" fill="#FF00C7"/>
<rect x="49.2141" y="34.2857" width="4.28571" height="3.78571" transform="rotate(90 49.2141 34.2857)" fill="#FF00C7"/>
<rect x="49.2141" y="8.57141" width="4.28571" height="3.78571" transform="rotate(90 49.2141 8.57141)" fill="#FF00C7"/>
<rect x="18.9287" y="21.4286" width="4.28571" height="3.78571" transform="rotate(90 18.9287 21.4286)" fill="#FF00C7"/>
<rect x="18.9287" y="17.1429" width="4.28571" height="3.78571" transform="rotate(90 18.9287 17.1429)" fill="#FF00C7"/>
<rect x="18.9287" y="12.8571" width="4.28571" height="3.78571" transform="rotate(90 18.9287 12.8571)" fill="#FF00C7"/>
<rect x="18.9287" y="25.7143" width="4.28571" height="3.78571" transform="rotate(90 18.9287 25.7143)" fill="#FF00C7"/>
<rect x="18.9287" y="30" width="4.28571" height="3.78571" transform="rotate(90 18.9287 30)" fill="#FF00C7"/>
<rect x="18.9287" y="34.2857" width="4.28571" height="3.78571" transform="rotate(90 18.9287 34.2857)" fill="#FF00C7"/>
<rect x="15.1428" y="38.5714" width="4.28571" height="3.78571" transform="rotate(90 15.1428 38.5714)" fill="#FF00C7"/>
<rect x="11.3572" y="38.5714" width="4.28571" height="3.78571" transform="rotate(90 11.3572 38.5714)" fill="#FF00C7"/>
<rect x="18.9287" y="42.8571" width="4.28571" height="3.78571" transform="rotate(90 18.9287 42.8571)" fill="#FF00C7"/>
<rect x="18.9287" y="47.1429" width="4.28571" height="3.78571" transform="rotate(90 18.9287 47.1429)" fill="#FF00C7"/>
<rect x="22.7141" y="47.1429" width="4.28571" height="3.78571" transform="rotate(90 22.7141 47.1429)" fill="#FF00C7"/>
<rect x="30.2859" y="47.1429" width="4.28571" height="3.78571" transform="rotate(90 30.2859 47.1429)" fill="#FF00C7"/>
<rect x="34.0713" y="47.1429" width="4.28571" height="3.78571" transform="rotate(90 34.0713 47.1429)" fill="#FF00C7"/>
<rect x="37.8572" y="47.1429" width="4.28571" height="3.78571" transform="rotate(90 37.8572 47.1429)" fill="#FF00C7"/>
<rect x="41.6428" y="47.1429" width="4.28571" height="3.78571" transform="rotate(90 41.6428 47.1429)" fill="#FF00C7"/>
<rect x="45.4287" y="47.1429" width="4.28571" height="3.78571" transform="rotate(90 45.4287 47.1429)" fill="#FF00C7"/>
<rect x="49.2141" y="42.8571" width="4.28571" height="3.78571" transform="rotate(90 49.2141 42.8571)" fill="#FF00C7"/>
<rect x="26.5" y="47.1429" width="4.28571" height="3.78571" transform="rotate(90 26.5 47.1429)" fill="#FF00C7"/>
<rect x="11.3572" y="34.2857" width="4.28571" height="3.78571" transform="rotate(90 11.3572 34.2857)" fill="#FF00C7"/>
<rect x="11.3572" y="30" width="4.28571" height="3.78571" transform="rotate(90 11.3572 30)" fill="#FF00C7"/>
<rect x="11.3572" y="25.7143" width="4.28571" height="3.78571" transform="rotate(90 11.3572 25.7143)" fill="#FF00C7"/>
<rect x="11.3572" y="21.4286" width="4.28571" height="3.78571" transform="rotate(90 11.3572 21.4286)" fill="#FF00C7"/>
<rect x="11.3572" y="17.1429" width="4.28571" height="3.78571" transform="rotate(90 11.3572 17.1429)" fill="#FF00C7"/>
<rect x="11.3572" y="12.8571" width="4.28571" height="3.78571" transform="rotate(90 11.3572 12.8571)" fill="#FF00C7"/>
<rect x="15.1428" y="8.57141" width="4.28571" height="3.78571" transform="rotate(90 15.1428 8.57141)" fill="#FF00C7"/>
<rect x="22.7141" y="21.4286" width="4.28571" height="3.78571" transform="rotate(90 22.7141 21.4286)" fill="#FF00C7"/>
<rect x="22.7141" y="17.1429" width="4.28571" height="3.78571" transform="rotate(90 22.7141 17.1429)" fill="#FF00C7"/>
<rect x="22.7141" y="12.8571" width="4.28571" height="3.78571" transform="rotate(90 22.7141 12.8571)" fill="#FF00C7"/>
<rect x="22.7141" y="25.7143" width="4.28571" height="3.78571" transform="rotate(90 22.7141 25.7143)" fill="#FF00C7"/>
<rect x="22.7141" y="30" width="4.28571" height="3.78571" transform="rotate(90 22.7141 30)" fill="#FF00C7"/>
<rect x="22.7141" y="34.2857" width="4.28571" height="3.78571" transform="rotate(90 22.7141 34.2857)" fill="#FF00C7"/>
<rect x="22.7141" y="8.57141" width="4.28571" height="3.78571" transform="rotate(90 22.7141 8.57141)" fill="#FF00C7"/>
<rect x="18.9287" y="8.57141" width="4.28571" height="3.78571" transform="rotate(90 18.9287 8.57141)" fill="#FF00C7"/>
<rect x="26.5" y="21.4286" width="4.28571" height="3.78571" transform="rotate(90 26.5 21.4286)" fill="#FF00C7"/>
<rect x="26.5" y="17.1429" width="4.28571" height="3.78571" transform="rotate(90 26.5 17.1429)" fill="#FF00C7"/>
<rect x="26.5" y="12.8571" width="4.28571" height="3.78571" transform="rotate(90 26.5 12.8571)" fill="#FF00C7"/>
<rect x="26.5" y="25.7143" width="4.28571" height="3.78571" transform="rotate(90 26.5 25.7143)" fill="#FF00C7"/>
<rect x="26.5" y="30" width="4.28571" height="3.78571" transform="rotate(90 26.5 30)" fill="#FF00C7"/>
<rect x="26.5" y="34.2857" width="4.28571" height="3.78571" transform="rotate(90 26.5 34.2857)" fill="#FF00C7"/>
<rect x="26.5" y="8.57141" width="4.28571" height="3.78571" transform="rotate(90 26.5 8.57141)" fill="#FF00C7"/>
<rect x="30.2859" y="21.4286" width="4.28571" height="3.78571" transform="rotate(90 30.2859 21.4286)" fill="#FF00C7"/>
<rect x="30.2859" y="17.1429" width="4.28571" height="3.78571" transform="rotate(90 30.2859 17.1429)" fill="#FF00C7"/>
<rect x="30.2859" y="12.8571" width="4.28571" height="3.78571" transform="rotate(90 30.2859 12.8571)" fill="#FF00C7"/>
<rect x="30.2859" y="25.7143" width="4.28571" height="3.78571" transform="rotate(90 30.2859 25.7143)" fill="#FF00C7"/>
<rect x="30.2859" y="30" width="4.28571" height="3.78571" transform="rotate(90 30.2859 30)" fill="#FF00C7"/>
<rect x="30.2859" y="34.2857" width="4.28571" height="3.78571" transform="rotate(90 30.2859 34.2857)" fill="#FF00C7"/>
<rect x="30.2859" y="8.57141" width="4.28571" height="3.78571" transform="rotate(90 30.2859 8.57141)" fill="#FF00C7"/>
<rect x="37.8572" y="21.4286" width="4.28571" height="3.78571" transform="rotate(90 37.8572 21.4286)" fill="#FF00C7"/>
<rect x="37.8572" y="17.1429" width="4.28571" height="3.78571" transform="rotate(90 37.8572 17.1429)" fill="#FF00C7"/>
<rect x="37.8572" y="12.8571" width="4.28571" height="3.78571" transform="rotate(90 37.8572 12.8571)" fill="#FF00C7"/>
<rect x="37.8572" y="25.7143" width="4.28571" height="3.78571" transform="rotate(90 37.8572 25.7143)" fill="#FF00C7"/>
<rect x="37.8572" y="30" width="4.28571" height="3.78571" transform="rotate(90 37.8572 30)" fill="#FF00C7"/>
<rect x="37.8572" y="34.2857" width="4.28571" height="3.78571" transform="rotate(90 37.8572 34.2857)" fill="#FF00C7"/>
<rect x="37.8572" y="8.57141" width="4.28571" height="3.78571" transform="rotate(90 37.8572 8.57141)" fill="#FF00C7"/>
<rect x="41.6428" y="21.4286" width="4.28571" height="3.78571" transform="rotate(90 41.6428 21.4286)" fill="#FF00C7"/>
<rect x="41.6428" y="17.1429" width="4.28571" height="3.78571" transform="rotate(90 41.6428 17.1429)" fill="#FF00C7"/>
<rect x="41.6428" y="12.8571" width="4.28571" height="3.78571" transform="rotate(90 41.6428 12.8571)" fill="#FF00C7"/>
<rect x="41.6428" y="25.7143" width="4.28571" height="3.78571" transform="rotate(90 41.6428 25.7143)" fill="#FF00C7"/>
<rect x="41.6428" y="30" width="4.28571" height="3.78571" transform="rotate(90 41.6428 30)" fill="#FF00C7"/>
<rect x="41.6428" y="34.2857" width="4.28571" height="3.78571" transform="rotate(90 41.6428 34.2857)" fill="#FF00C7"/>
<rect x="41.6428" y="8.57141" width="4.28571" height="3.78571" transform="rotate(90 41.6428 8.57141)" fill="#FF00C7"/>
<rect x="45.4287" y="21.4286" width="4.28571" height="3.78571" transform="rotate(90 45.4287 21.4286)" fill="#FF00C7"/>
<rect x="45.4287" y="17.1429" width="4.28571" height="3.78571" transform="rotate(90 45.4287 17.1429)" fill="#FF00C7"/>
<rect x="45.4287" y="12.8571" width="4.28571" height="3.78571" transform="rotate(90 45.4287 12.8571)" fill="#FF00C7"/>
<rect x="45.4287" y="25.7143" width="4.28571" height="3.78571" transform="rotate(90 45.4287 25.7143)" fill="#FF00C7"/>
<rect x="45.4287" y="30" width="4.28571" height="3.78571" transform="rotate(90 45.4287 30)" fill="#FF00C7"/>
<rect x="45.4287" y="34.2857" width="4.28571" height="3.78571" transform="rotate(90 45.4287 34.2857)" fill="#FF00C7"/>
<rect x="45.4287" y="8.57141" width="4.28571" height="3.78571" transform="rotate(90 45.4287 8.57141)" fill="#FF00C7"/>
<rect x="22.7141" y="17.1429" width="3.78571" height="4.28571" fill="#FF00C7"/>
<rect x="34.0713" y="17.1429" width="3.78571" height="4.28571" fill="#FF00C7"/>
<rect x="37.8572" y="17.1429" width="3.78571" height="4.28571" fill="#FF00C7"/>
<rect x="34.0713" y="12.8571" width="3.78571" height="4.28571" fill="#FF00C7"/>
<rect x="30.2859" y="8.57141" width="3.78571" height="4.28571" fill="#FF00C7"/>
<rect x="3.78589" y="8.57141" width="3.78571" height="4.28571" fill="#F99ECF"/>
<rect y="12.8571" width="3.78571" height="4.28571" fill="#F99ECF"/>
<rect y="17.1429" width="3.78571" height="4.28571" fill="#F99ECF"/>
<rect y="21.4286" width="3.78571" height="4.28571" fill="#F99ECF"/>
<rect y="25.7143" width="3.78571" height="4.28571" fill="#F99ECF"/>
<rect y="30" width="3.78571" height="4.28571" fill="#F99ECF"/>
<rect y="34.2857" width="3.78571" height="4.28571" fill="#F99ECF"/>
<rect y="38.5714" width="3.78571" height="4.28571" fill="#F99ECF"/>
<rect x="3.78589" y="42.8571" width="3.78571" height="4.28571" fill="#F99ECF"/>
<rect x="3.78589" y="47.1429" width="3.78571" height="4.28571" fill="#F99ECF"/>
<rect y="42.8571" width="3.78571" height="4.28571" fill="#F99ECF"/>
<rect x="7.57129" y="51.4286" width="3.78571" height="4.28571" fill="#F99ECF"/>
<rect x="3.78589" y="51.4286" width="3.78571" height="4.28571" fill="#F99ECF"/>
<rect x="11.3572" y="51.4286" width="3.78571" height="4.28571" fill="#F99ECF"/>
<rect x="15.1428" y="55.7143" width="3.78571" height="4.28571" fill="#F99ECF"/>
<rect x="11.3572" y="55.7143" width="3.78571" height="4.28571" fill="#F99ECF"/>
<rect x="18.9287" y="55.7143" width="3.78571" height="4.28571" fill="#F99ECF"/>
<rect x="22.7141" y="55.7143" width="3.78571" height="4.28571" fill="#F99ECF"/>
<rect x="26.5" y="55.7143" width="3.78571" height="4.28571" fill="#F99ECF"/>
<rect x="30.2859" y="55.7143" width="3.78571" height="4.28571" fill="#F99ECF"/>
<rect x="34.0713" y="55.7143" width="3.78571" height="4.28571" fill="#F99ECF"/>
<rect x="37.8572" y="55.7143" width="3.78571" height="4.28571" fill="#F99ECF"/>
<rect x="41.6428" y="55.7143" width="3.78571" height="4.28571" fill="#F99ECF"/>
<rect x="45.4287" y="51.4286" width="3.78571" height="4.28571" fill="#F99ECF"/>
<rect x="49.2141" y="47.1429" width="3.78571" height="4.28571" fill="#F99ECF"/>
<rect x="3.78589" y="4.28571" width="3.78571" height="4.28571" fill="#F99ECF"/>
<rect x="11.3572" width="3.78571" height="4.28571" fill="#F99ECF"/>
<path d="M41.6428 23.4286H45.4285V27.7143H41.6428V23.4286Z" fill="#FFDBF7"/>
<path d="M37.8572 23.4286H41.6429V27.7143H37.8572V23.4286Z" fill="#FFDBF7"/>
<path d="M34.0713 23.4286H37.857V27.7143H34.0713V23.4286Z" fill="#FFDBF7"/>
<path d="M30.2859 23.4286H34.0716V27.7143H30.2859V23.4286Z" fill="#FFDBF7"/>
<path d="M26.5 19.1429H30.2857V23.4286H26.5V19.1429Z" fill="#FFDBF7"/>
<path d="M26.5 27.7143H30.2857V32H26.5V27.7143Z" fill="#FFDBF7"/>
<path d="M18.9287 23.4286H22.7144V27.7143H18.9287V23.4286Z" fill="#FFDBF7"/>
<path d="M26.5 14.8571H30.2857V19.1428H26.5V14.8571Z" fill="#FFDBF7"/>
<path d="M22.7141 19.1429H26.4998V23.4286H22.7141V19.1429Z" fill="#FFDBF7"/>
<path d="M22.7141 23.4286H26.4998V27.7143H22.7141V23.4286Z" fill="#FFDBF7"/>
<path d="M22.7141 27.7143H26.4998V32H22.7141V27.7143Z" fill="#FFDBF7"/>
<path d="M26.5 23.4286H30.2857V27.7143H26.5V23.4286Z" fill="#FFDBF7"/>
<path d="M26.5 32H30.2857V36.2857H26.5V32Z" fill="#FFDBF7"/>
</svg>