<svg width="135" height="135" viewBox="0 0 135 135" fill="none" xmlns="http://www.w3.org/2000/svg">
<path d="M33.7412 102.759H26.9895V107.234H33.7412V102.759Z" fill="#FEB0DC"/>
<path d="M94.5068 89.3594H87.7551V93.8219H94.5068V89.3594Z" fill="#FEB0DC"/>
<path d="M47.2451 89.3594H40.4934V93.8219H47.2451V89.3594Z" fill="#FEB0DC"/>
<path d="M108.011 111.697V107.222H101.259V102.76V98.2971H94.5071V93.8224H87.7555V89.3599V84.8851H81.0038V80.4105V75.9602H74.2521V71.4855H67.4835H60.7488V75.9602H53.9802V80.4105V84.8851H47.2454V89.3599V93.8224H40.4768V98.2971H33.7421V102.76V107.222H26.9904V111.697H20.2385V116.159H26.9904H33.7421H40.4768H47.2454H53.9802H60.7488H67.4835H74.2521H81.0038H87.7555H94.5071H101.259H108.011H114.762V111.697H108.011Z" fill="url(#paint0_linear_1320_1602)"/>
<path d="M94.5068 62.5482H87.7551V67.0229H94.5068V62.5482Z" fill="#4A4F4E"/>
<path d="M121.496 107.222H114.762V102.76V98.2971H108.01V93.8224V89.3599H101.258V84.8851V80.4104H94.5065V75.9602V71.4854H87.7549V67.023V62.5483H94.5065V58.0858V53.6233H101.258V49.1486V44.6738H108.01V40.2114V35.7367H114.762V31.2864V26.8117H121.496V22.337H128.265V17.8745H121.496H114.762H108.01H101.258H94.5065H87.7549H81.0032H74.2515H67.4829H60.7482H53.9795H47.2448H40.4762H33.7415H26.9898H20.2379H13.5032V22.337V26.8117H20.2379V31.2864V35.7367H26.9898V40.2114V44.6738H33.7415V49.1486V53.6233H40.4762V58.0858V62.5483H47.2448V67.023V71.4854H40.4762V75.9602V80.4104H33.7415V84.8851V89.3599H26.9898V93.8224V98.2971H20.2379V102.76V107.222H13.5032V111.697V116.159H20.2379V111.697H26.9898V107.222V102.76H33.7415V98.2971H40.4762V93.8224V89.3599H47.2448V84.8851H53.9795V80.4104V75.9602H60.7482V71.4854H67.4829H74.2515V75.9602H81.0032V80.4104V84.8851H87.7549V89.3599H94.5065V93.8224V98.2971H101.258V102.76V107.222H108.01V111.697H114.762V116.159H121.496H128.265V111.697H121.496V107.222Z" fill="white"/>
<path d="M135 8.93726H128.265V13.3997H135V8.93726Z" fill="#494843"/>
<path d="M135 4.47449H128.265V8.94917H135V4.47449Z" fill="#7A725B"/>
<path d="M114.762 120.622H108.01H101.259H94.5068H87.7552H81.0035H74.2518H67.4832H60.7485H53.9798H47.2451H40.4765H33.7418H26.9901H20.2382H13.5035H6.73486V125.109V129.559H13.5035H20.2382H26.9901H33.7418H40.4765H47.2451H53.9798H60.7485H67.4832H74.2518H81.0035H87.7552H94.5068H101.259H108.01H114.762H121.497H128.265V125.109V120.622H121.497H114.762Z" fill="#E30CB4"/>
<path d="M121.497 4.47449H114.762H108.01H101.259H94.5068H87.7552H81.0035H74.2518H67.4832H60.7485H53.9798H47.2451H40.4765H33.7418H26.9901H20.2382H13.5035H6.73486V8.9369V13.3994H13.5035H20.2382H26.9901H33.7418H40.4765H47.2451H53.9798H60.7485H67.4832H74.2518H81.0035H87.7552H94.5068H101.259H108.01H114.762H121.497H128.265V8.9369V4.47449H121.497Z" fill="#E30CB4"/>
<path d="M128.248 0H121.497V4.47476H128.248V0Z" fill="#494B44"/>
<path d="M121.496 0H114.762V4.47476H121.496V0Z" fill="#494B44"/>
<path d="M114.745 0H108.01V4.47476H114.745V0Z" fill="#494B44"/>
<path d="M108.01 0H101.258V4.47476H108.01V0Z" fill="#494B44"/>
<path d="M101.242 0H94.5071V4.47476H101.242V0Z" fill="#494B44"/>
<path d="M94.5068 0H87.7551V4.47476H94.5068V0Z" fill="#494B44"/>
<path d="M87.7379 0H81.0032V4.47476H87.7379V0Z" fill="#494B44"/>
<path d="M81.0029 0H74.2512V4.47476H81.0029V0Z" fill="#494B44"/>
<path d="M135 0H128.265V4.47476H135V0Z" fill="#1D1D1B"/>
<path d="M128.248 107.222H121.497V111.697H128.248V107.222Z" fill="#1D1D1B"/>
<path d="M6.73474 111.697V116.159H0V120.621V125.108V129.559V134.033H6.73474V129.559V125.108V120.621H13.5033H20.2381H26.99H33.7416H40.4764H47.245H53.9797H60.7483H67.4831H74.2517H81.0033H87.755H94.5067H101.258H108.01H114.762H121.497H128.265V125.108V129.559H121.497H114.762H108.01H101.258H94.5067H87.755H81.0033H74.2517H67.4831H60.7483H53.9797H47.245H40.4764H33.7416H26.99H20.2381H13.5033H6.73474V134.033H13.5033H20.2381H26.99H33.7416H40.4764H47.245H53.9797H60.7483H67.4831H74.2517H81.0033H87.755H94.5067H101.258H108.01H114.762H121.497H128.265H135V129.559V125.108V120.621V116.159V111.697H128.265V116.159H121.497H114.762H108.01H101.258H94.5067H87.755H81.0033H74.2517H67.4831H60.7483H53.9797H47.245H40.4764H33.7416H26.99H20.2381H13.5033V111.697V107.222H6.73474V111.697Z" fill="#1D1D1B"/>
<path d="M121.496 98.2969H114.762V102.759V107.222H121.496V102.759V98.2969Z" fill="#1D1D1B"/>
<path d="M13.5032 102.759V107.222H20.2379V102.759V98.2969H13.5032V102.759Z" fill="#1D1D1B"/>
<path d="M114.762 89.3594H108.01V93.8219V98.2966H114.762V93.8219V89.3594Z" fill="#1D1D1B"/>
<path d="M20.2385 93.8219V98.2966H26.9904V93.8219V89.3594H20.2385V93.8219Z" fill="#1D1D1B"/>
<path d="M108.01 80.4103H101.258V84.885V89.3597H108.01V84.885V80.4103Z" fill="#1D1D1B"/>
<path d="M26.9895 84.885V89.3597H33.7412V84.885V80.4103H26.9895V84.885Z" fill="#1D1D1B"/>
<path d="M101.258 71.4852H94.5068V67.0227H87.7551V71.4852H94.5068V75.96V80.4102H101.258V75.96V71.4852Z" fill="#1D1D1B"/>
<path d="M33.7415 75.9602V80.4105H40.4762V75.9602V71.4855H33.7415V75.9602Z" fill="#1D1D1B"/>
<path d="M40.4761 71.4854H47.2447V67.0229V62.5482H40.4761V67.0229V71.4854Z" fill="#1D1D1B"/>
<path d="M33.7415 62.5481H40.4762V58.0857V53.6232H33.7415V58.0857V62.5481Z" fill="#1D1D1B"/>
<path d="M94.5071 58.0857V62.5481H101.259V58.0857V53.6232H94.5071V58.0857Z" fill="#1D1D1B"/>
<path d="M26.9895 53.6232H33.7412V49.1485V44.6737H26.9895V49.1485V53.6232Z" fill="#1D1D1B"/>
<path d="M101.258 49.1485V53.6232H108.01V49.1485V44.6737H101.258V49.1485Z" fill="#1D1D1B"/>
<path d="M20.2385 44.6737H26.9904V40.2113V35.7366H20.2385V40.2113V44.6737Z" fill="#1D1D1B"/>
<path d="M108.01 40.2113V44.6737H114.762V40.2113V35.7366H108.01V40.2113Z" fill="#1D1D1B"/>
<path d="M13.5032 35.7364H20.2379V31.2862V26.8114H13.5032V31.2862V35.7364Z" fill="#1D1D1B"/>
<path d="M114.762 31.2862V35.7364H121.496V31.2862V26.8114H114.762V31.2862Z" fill="#1D1D1B"/>
<path d="M128.248 22.3368H121.497V26.8115H128.248V22.3368Z" fill="#1D1D1B"/>
<path d="M121.497 13.3997H114.762H108.01H101.258H94.5067H87.755H81.0033H74.2517H67.4831H60.7483H53.9797H47.245H40.4764H33.7416H26.99H20.2381H13.5033H6.73474V8.93718V4.47476H13.5033H20.2381H26.99H33.7416H40.4764H47.245H53.9797H60.7483H67.4831H74.2517V0H67.4831H60.7483H53.9797H47.245H40.4764H33.7416H26.99H20.2381H13.5033H6.73474H0V4.47476V8.93718V13.3997V17.8744H6.73474V22.3369V26.8116H13.5033V22.3369V17.8744H20.2381H26.99H33.7416H40.4764H47.245H53.9797H60.7483H67.4831H74.2517H81.0033H87.755H94.5067H101.258H108.01H114.762H121.497H128.265V22.3369H135V17.8744V13.3997H128.265H121.497Z" fill="#1D1D1B"/>
<path d="M128.265 4.47449H74.2512V8.94917H128.265V4.47449Z" fill="white"/>
<defs>
<linearGradient id="paint0_linear_1320_1602" x1="67.5004" y1="71.4855" x2="67.5004" y2="116.159" gradientUnits="userSpaceOnUse">
<stop stop-color="#C824EC"/>
<stop offset="1" stop-color="#DF308D"/>
</linearGradient>
</defs>
</svg>
