<svg xmlns="http://www.w3.org/2000/svg" xmlns:xlink="http://www.w3.org/1999/xlink" width="174" height="117" viewBox="0 0 174 117" fill="none">
<mask id="path-1-inside-1_1328_1976" fill="#000000">
<path fill-rule="evenodd" clip-rule="evenodd" d="M151.835 0.0994263V3.8598H161.034V10.1273H167.781V15.9769H173.914V100.797H169.007V106.647H162.261V112.914H153.062V116.257H23.0417V112.914H13.8424V106.647H7.0957V100.797H0.963135V15.9769H7.09566V10.1273H13.8423V3.8598H23.0416V0.0994263H151.835ZM173.914 0.0994263V7.20245H173.914V0.0994263H173.914Z" fill="#000000"/>
</mask>
<path fill-rule="evenodd" clip-rule="evenodd" d="M151.835 0.0994263V3.8598H161.034V10.1273H167.781V15.9769H173.914V100.797H169.007V106.647H162.261V112.914H153.062V116.257H23.0417V112.914H13.8424V106.647H7.0957V100.797H0.963135V15.9769H7.09566V10.1273H13.8423V3.8598H23.0416V0.0994263H151.835ZM173.914 0.0994263V7.20245H173.914V0.0994263H173.914Z" fill="#000000"/>
<path d="M151.835 3.8598H-848.165V1003.86H151.835V3.8598ZM151.835 0.0994263H1151.83V-999.901H151.835V0.0994263ZM161.034 3.8598H1161.03V-996.14H161.034V3.8598ZM161.034 10.1273H-838.966V1010.13H161.034V10.1273ZM167.781 10.1273H1167.78V-989.873H167.781V10.1273ZM167.781 15.9769H-832.219V1015.98H167.781V15.9769ZM173.914 15.9769H1173.91V-984.023H173.914V15.9769ZM173.914 100.797V1100.8H1173.91V100.797H173.914ZM169.007 100.797V-899.203H-830.993V100.797H169.007ZM169.007 106.647V1106.65H1169.01V106.647H169.007ZM162.261 106.647V-893.353H-837.739V106.647H162.261ZM162.261 112.914V1112.91H1162.26V112.914H162.261ZM153.062 112.914V-887.086H-846.938V112.914H153.062ZM153.062 116.257V1116.26H1153.06V116.257H153.062ZM23.0417 116.257H-976.958V1116.26H23.0417V116.257ZM23.0417 112.914H1023.04V-887.086H23.0417V112.914ZM13.8424 112.914H-986.158V1112.91H13.8424V112.914ZM13.8424 106.647H1013.84V-893.353H13.8424V106.647ZM7.0957 106.647H-992.904V1106.65H7.0957V106.647ZM7.0957 100.797H1007.1V-899.203H7.0957V100.797ZM0.963135 100.797H-999.037V1100.8H0.963135V100.797ZM0.963135 15.9769V-984.023H-999.037V15.9769H0.963135ZM7.09566 15.9769V1015.98H1007.1V15.9769H7.09566ZM7.09566 10.1273V-989.873H-992.904V10.1273H7.09566ZM13.8423 10.1273V1010.13H1013.84V10.1273H13.8423ZM13.8423 3.8598V-996.14H-986.158V3.8598H13.8423ZM23.0416 3.8598V1003.86H1023.04V3.8598H23.0416ZM23.0416 0.0994263V-999.901H-976.958V0.0994263H23.0416ZM173.914 7.20245H-826.086V1007.2H173.914V7.20245ZM173.914 0.0994263V-999.901H-826.086V0.0994263H173.914ZM173.914 7.20245V1007.2H1173.91V7.20245H173.914ZM173.914 0.0994263H1173.91V-999.901H173.914V0.0994263ZM1151.83 3.8598V0.0994263H-848.165V3.8598H1151.83ZM161.034 -996.14H151.835V1003.86H161.034V-996.14ZM1161.03 10.1273V3.8598H-838.966V10.1273H1161.03ZM167.781 -989.873H161.034V1010.13H167.781V-989.873ZM1167.78 15.9769V10.1273H-832.219V15.9769H1167.78ZM173.914 -984.023H167.781V1015.98H173.914V-984.023ZM1173.91 100.797V15.9769H-826.086V100.797H1173.91ZM169.007 1100.8H173.914V-899.203H169.007V1100.8ZM1169.01 106.647V100.797H-830.993V106.647H1169.01ZM162.261 1106.65H169.007V-893.353H162.261V1106.65ZM1162.26 112.914V106.647H-837.739V112.914H1162.26ZM153.062 1112.91H162.261V-887.086H153.062V1112.91ZM1153.06 116.257V112.914H-846.938V116.257H1153.06ZM23.0417 1116.26H153.062V-883.743H23.0417V1116.26ZM1023.04 116.257V112.914H-976.958V116.257H1023.04ZM23.0417 -887.086H13.8424V1112.91H23.0417V-887.086ZM-986.158 106.647V112.914H1013.84V106.647H-986.158ZM7.0957 1106.65H13.8424V-893.353H7.0957V1106.65ZM-992.904 100.797V106.647H1007.1V100.797H-992.904ZM0.963135 1100.8H7.0957V-899.203H0.963135V1100.8ZM-999.037 15.9769V100.797H1000.96V15.9769H-999.037ZM7.09566 -984.023H0.963135V1015.98H7.09566V-984.023ZM-992.904 10.1273V15.9769H1007.1V10.1273H-992.904ZM13.8423 -989.873H7.09566V1010.13H13.8423V-989.873ZM-986.158 3.8598V10.1273H1013.84V3.8598H-986.158ZM23.0416 -996.14H13.8423V1003.86H23.0416V-996.14ZM-976.958 0.0994263V3.8598H1023.04V0.0994263H-976.958ZM151.835 -999.901H23.0416V1000.1H151.835V-999.901ZM1173.91 7.20245V0.0994263H-826.086V7.20245H1173.91ZM173.914 -992.798H173.914V1007.2H173.914V-992.798ZM-826.086 0.0994263V7.20245H1173.91V0.0994263H-826.086ZM173.914 1000.1H173.914V-999.901H173.914V1000.1Z" fill="#1A1E53" mask="url(#path-1-inside-1_1328_1976)"/>
</svg>